<svg width="1239" height="768" viewBox="0 0 1239 768" fill="none" xmlns="http://www.w3.org/2000/svg">
<path d="M-249.667 87.0198C-249.667 42.953 -245.335 -90.9166 -197.024 -221.448C-151.378 -344.968 -81.0757 -421.084 6.55176 -442.116C139.825 -473.83 259.772 -404.058 376.053 -336.289C469.011 -282.207 565.302 -226.122 665.59 -225.12C709.237 -224.786 746.221 -236.804 785.536 -249.49C806.194 -256.167 827.851 -263.178 850.507 -268.185C917.477 -283.208 953.128 -241.144 986.446 -193.071C1057.75 -90.5827 1105.39 33.9394 1144.71 142.437C1192.35 274.638 1239 415.184 1239 550.723C1239 550.723 1239 550.723 1239 551.057C1239 683.591 1106.73 698.614 989.778 711.967C954.461 715.973 920.809 719.646 892.822 726.656C805.861 747.688 716.234 778.067 629.939 807.111C467.012 861.861 298.754 918.614 130.829 921.952C-0.44519 924.623 -32.764 815.124 -64.0833 709.63C-70.4138 688.265 -77.0775 666.231 -84.0743 645.867C-100.734 599.463 -120.058 551.724 -138.717 505.988C-193.026 373.12 -249 235.578 -250 91.0259C-249.667 89.6906 -249.667 88.3552 -249.667 87.0198ZM1235.67 551.057C1235.67 415.852 1189.02 275.639 1141.38 143.439C1102.39 34.9409 1054.75 -89.2474 983.781 -191.402C950.796 -238.474 916.145 -279.87 851.174 -265.181C828.85 -260.173 807.193 -253.163 786.536 -246.486C746.887 -233.466 709.57 -221.448 665.257 -221.782C563.969 -222.783 467.345 -279.202 374.054 -333.284C258.439 -400.386 138.826 -470.158 6.88501 -438.777C-79.4097 -418.079 -149.045 -342.631 -194.358 -220.446C-244.003 -86.2428 -247.001 51.9667 -246.668 91.0259C-245.669 234.911 -189.694 372.119 -135.718 504.653C-117.06 550.723 -97.7349 598.128 -81.0757 644.865C-73.7456 665.23 -67.415 687.263 -61.0846 708.629C-30.0984 813.12 1.88721 920.951 130.496 918.614C297.755 915.275 466.013 858.857 628.607 803.773C715.234 774.729 804.528 744.35 891.822 723.318C920.143 716.307 953.794 712.635 989.445 708.629C1105.06 695.275 1235.67 680.586 1235.67 551.057Z" fill="#12001A" fill-opacity="0.05"/>
<path d="M-204.021 74.334C-204.021 -92.5857 -142.382 -336.288 34.5393 -370.006C158.484 -393.709 274.099 -332.616 385.715 -273.527C478.341 -224.786 565.635 -178.382 655.595 -178.382C684.248 -178.382 714.568 -187.73 743.555 -197.077C769.877 -205.423 797.198 -214.103 824.519 -216.106C882.493 -220.112 915.145 -180.052 945.798 -134.649C1010.1 -40.1729 1053.08 72.9986 1091.73 180.829C1136.38 305.685 1176.69 427.536 1179.36 544.046C1182.36 666.899 1036.76 681.922 919.476 693.94C888.157 697.278 858.171 700.283 834.181 705.29C747.887 722.984 659.926 749.691 574.631 775.397C429.363 819.464 279.096 864.866 130.163 868.872C-0.778198 872.544 -31.4312 762.377 -61.0846 655.882C-65.4159 640.526 -69.7473 624.501 -74.7451 609.145C-85.7402 573.424 -98.068 536.368 -110.063 500.647C-154.376 367.445 -200.356 229.569 -204.021 92.3613C-204.021 86.3522 -204.021 80.3431 -204.021 74.334ZM-200.356 92.3613C-196.691 228.902 -150.711 366.443 -106.398 499.645C-94.403 535.366 -82.0752 572.089 -71.0801 608.143C-66.4155 623.5 -61.751 639.524 -57.4196 654.881C-28.0994 760.04 2.55359 868.872 130.829 865.199C279.43 861.193 429.362 815.791 574.298 772.058C659.593 746.353 747.553 719.646 834.181 701.952C858.171 696.944 888.157 693.94 919.476 690.602C1035.09 678.583 1179.36 663.56 1176.36 544.046C1173.36 427.87 1133.38 306.352 1088.73 181.83C1050.42 74.334 1007.44 -38.8376 943.132 -132.98C912.813 -177.381 880.827 -216.774 824.852 -213.102C798.197 -211.099 770.876 -202.419 744.555 -194.073C715.235 -184.725 684.915 -175.044 655.595 -175.044C564.969 -175.378 477.008 -221.448 384.383 -270.522C273.099 -329.278 158.151 -390.037 35.2057 -366.668C-146.047 -332.282 -205.02 -73.2231 -200.356 92.3613Z" fill="#12001A" fill-opacity="0.05"/>
<path d="M-167.37 77.0046C-167.37 -1.78146 -151.378 -82.5706 -122.391 -146.668C-82.7416 -235.135 -20.7693 -288.216 56.5294 -300.568C169.146 -318.595 276.098 -267.518 380.051 -218.443C466.346 -177.381 547.976 -138.989 628.94 -139.657C657.927 -139.991 684.248 -144.331 709.57 -148.671C778.873 -160.021 838.846 -170.037 897.486 -80.5676C1014.1 97.3688 1097.73 341.405 1105.73 526.019C1110.72 641.861 956.127 658.887 843.177 671.239C817.189 674.243 792.2 676.914 772.542 680.586C692.245 695.275 609.948 716.975 530.317 737.673C398.376 772.392 262.104 808.447 129.497 813.454C0.221313 818.462 -31.4312 701.618 -59.4187 598.796C-61.751 590.116 -64.0833 581.436 -66.4155 572.756C-71.4133 554.395 -76.7443 536.034 -82.0752 517.673C-121.724 379.129 -162.373 235.578 -167.037 96.3673C-167.37 89.6905 -167.37 83.3476 -167.37 77.0046ZM1102.73 531.026C1102.73 529.357 1102.73 527.688 1102.73 526.019C1094.73 341.739 1011.44 98.7042 895.154 -78.8984C837.846 -166.364 781.538 -157.017 710.57 -145.332C684.915 -140.992 658.593 -136.653 629.273 -136.319C547.31 -135.317 465.346 -174.376 378.719 -215.439C275.431 -264.513 168.812 -314.923 57.1958 -297.229C-19.1034 -284.877 -80.076 -232.464 -119.392 -145.332C-150.045 -77.2291 -166.371 12.9075 -163.705 96.0335C-159.041 234.911 -118.392 378.128 -78.7434 516.671C-73.4125 535.032 -68.4147 553.393 -63.0837 571.755C-60.7515 580.434 -58.4191 589.114 -56.0868 597.794C-27.0997 704.623 2.88672 814.79 129.164 810.116C261.771 805.108 397.71 769.387 529.318 734.668C608.949 713.636 691.245 691.937 771.543 677.248C791.534 673.576 816.189 670.905 842.511 667.9C952.795 655.548 1102.73 639.19 1102.73 531.026Z" fill="#12001A" fill-opacity="0.05"/>
<path d="M-138.383 86.0182C-138.383 16.5796 -122.391 -53.5267 -93.4036 -108.944C-55.7538 -181.053 1.22076 -225.12 71.8558 -235.469C171.811 -250.492 269.767 -209.764 364.725 -170.37C443.023 -137.654 517.323 -106.941 588.958 -107.943C609.282 -108.276 628.607 -109.612 646.932 -111.281C723.897 -117.29 784.537 -122.298 841.178 -34.164C943.132 123.742 1013.77 332.726 1021.1 498.644C1026.1 613.484 875.163 630.844 765.212 643.196C744.221 645.533 724.564 647.87 708.571 650.541C638.935 662.225 567.301 678.583 498.332 694.273C376.053 721.982 249.776 750.692 127.831 756.034C0.221191 761.375 -31.0981 642.862 -58.7524 538.371L-59.4187 536.034C-94.7362 402.832 -132.719 248.264 -138.05 102.042C-138.383 96.3672 -138.383 91.0258 -138.383 86.0182ZM1018.1 503.985C1018.1 502.316 1018.1 500.313 1018.1 498.644C1010.77 333.393 940.467 125.077 838.846 -32.4948C782.871 -118.959 723.231 -114.285 647.598 -108.276C628.94 -106.941 609.615 -105.272 589.291 -104.938C516.657 -103.936 442.357 -134.984 363.725 -167.366C269.434 -206.425 171.811 -247.154 72.5222 -232.131C3.21985 -221.782 -53.0883 -178.383 -90.4049 -107.275C-121.058 -48.1853 -137.384 27.9301 -134.718 102.042C-129.387 247.93 -91.4044 402.164 -56.0869 535.366L-55.4205 537.703C-28.0995 640.859 2.88666 758.037 127.831 752.695C249.443 747.688 375.72 718.978 497.665 690.935C566.634 675.245 638.269 658.887 707.904 647.202C724.23 644.531 743.888 642.195 764.879 639.858C871.831 627.506 1018.1 610.814 1018.1 503.985Z" fill="#12001A" fill-opacity="0.05"/>
<path d="M-115.394 99.038C-115.394 37.2777 -99.0675 -24.8164 -70.0805 -72.5555C-34.763 -130.644 17.5469 -166.031 80.5187 -175.044C168.479 -187.396 255.107 -157.351 339.07 -128.307C408.372 -104.27 474.009 -81.5692 537.98 -82.2368C545.644 -82.2368 552.974 -82.5706 560.637 -82.5706C648.931 -84.2398 718.566 -85.5752 776.874 3.55988C862.502 134.759 921.809 315.366 927.806 463.257C932.471 575.761 782.871 595.791 684.248 608.811C668.922 610.814 654.595 612.817 642.267 614.82C589.624 623.5 535.648 634.182 483.671 644.531C365.391 667.9 243.446 691.937 125.499 696.61C9.55048 700.95 -27.4329 596.793 -53.0881 498.644C-91.4043 352.088 -112.395 220.889 -115.394 108.385C-115.06 105.715 -115.394 102.376 -115.394 99.038ZM924.807 468.598C924.807 466.929 924.807 465.594 924.807 463.924C918.81 316.367 859.836 136.762 774.541 5.89679C717.234 -81.903 648.264 -80.5676 560.97 -78.8984C553.64 -78.8984 545.977 -78.5646 538.314 -78.5646C473.676 -77.8969 408.039 -100.598 338.403 -124.634C254.774 -153.678 168.479 -183.39 81.5182 -171.372C19.546 -162.692 -31.7643 -127.973 -66.7487 -70.5525C-97.0684 -20.8104 -113.394 44.2883 -111.395 109.053C-108.397 221.223 -87.4061 352.088 -49.09 498.31C-22.7684 599.463 12.5491 697.946 126.165 693.606C243.446 689.266 365.724 664.896 483.671 641.861C535.981 631.512 589.957 620.829 642.6 612.149C654.928 610.146 669.588 608.143 684.915 606.14C780.205 593.12 924.807 574.091 924.807 468.598Z" fill="#12001A" fill-opacity="0.05"/>
<path d="M-96.402 111.724C-96.402 56.9744 -80.4092 4.22774 -51.0891 -37.1684C-18.437 -83.2382 28.2088 -112.282 83.8506 -120.628C159.483 -131.979 235.116 -110.947 308.083 -90.9165C367.723 -74.2245 424.032 -58.8679 480.34 -59.5356C565.635 -60.8709 646.932 -54.528 705.572 34.941C776.54 142.437 824.519 295.336 828.517 423.864C828.517 425.199 828.517 426.535 828.517 427.87C828.517 534.365 692.911 555.73 602.618 570.086C592.956 571.755 583.627 573.09 575.297 574.425C551.641 578.431 527.652 582.771 503.663 587.111C378.385 609.812 248.777 633.181 123.166 636.52C16.8805 639.524 -21.7689 550.055 -45.7582 461.922C-76.4111 348.75 -94.4029 226.231 -96.402 116.398C-96.402 115.062 -96.402 113.393 -96.402 111.724ZM-93.0702 117.065C-91.071 226.231 -73.0793 348.75 -42.4263 461.588C-18.7703 548.386 19.2128 636.853 123.166 633.849C248.443 630.177 378.052 606.808 502.996 584.441C526.985 580.101 550.975 575.761 574.631 571.755C583.294 570.419 592.29 568.75 602.285 567.081C691.245 553.06 825.185 531.694 825.185 427.87C825.185 426.535 825.185 425.533 825.185 424.198C821.187 296.003 773.209 144.106 702.573 36.944C644.599 -51.1896 564.302 -57.1987 480.007 -56.1972C423.365 -55.5295 366.724 -70.8861 307.084 -87.5781C234.45 -107.608 159.15 -128.64 84.1837 -117.29C29.5415 -109.278 -16.1047 -80.9013 -48.4236 -35.1653C-78.4102 6.89847 -94.0697 60.9804 -93.0702 117.065Z" fill="#12001A" fill-opacity="0.05"/>
<path d="M-80.4093 118.735C-80.4093 58.9774 -63.7501 13.2414 -30.4316 -16.4703C43.5352 -82.9044 187.138 -64.5432 302.419 -49.8543C345.067 -44.5129 385.715 -39.1714 417.368 -38.8376C466.346 -38.5037 503.996 -32.1608 535.981 -18.4734C572.965 -2.7829 602.951 22.5889 627.274 59.6451C687.58 150.783 724.897 273.97 725.23 381.466V381.8C725.23 487.627 600.952 511.664 518.656 527.354L507.661 529.357C364.725 557.4 234.45 573.09 120.501 576.762C83.1842 577.764 50.5321 565.412 23.211 539.706C-63.4169 457.582 -77.4106 264.289 -80.4093 126.079C-80.4093 123.408 -80.4093 121.071 -80.4093 118.735ZM722.231 381.466C721.898 274.304 684.582 151.451 624.608 60.9804C568.633 -23.4809 488.669 -35.4991 417.368 -35.833C385.382 -36.1668 345.067 -41.1744 302.086 -46.8497C187.471 -61.5386 44.5348 -79.8998 -28.0994 -14.4673C-61.7509 15.9121 -78.4102 62.9834 -77.0775 125.411C-75.7447 187.506 -72.746 260.616 -59.7518 334.395C-43.0927 430.541 -14.4388 498.644 25.5433 536.368C52.1981 561.74 83.8506 573.758 120.501 572.756C234.117 569.418 364.392 553.394 507.328 525.351L518.323 523.348C604.284 507.324 722.231 484.623 722.231 381.466Z" fill="#12001A" fill-opacity="0.05"/>
<path d="M-65.0828 141.102C-65.0828 138.765 -65.0828 136.762 -65.0828 134.759C-64.7496 84.0153 -49.7564 44.6223 -20.7693 17.9151C44.5347 -42.176 169.479 -32.1608 270.1 -24.1486C300.42 -21.8117 329.074 -19.4749 353.063 -19.4749C418.034 -19.141 474.342 4.56158 519.989 50.9653C583.294 115.396 620.943 220.222 620.943 332.058C620.943 333.727 620.943 335.73 620.943 337.399C619.944 430.874 527.319 459.585 440.358 479.281C333.739 503.318 222.122 516.003 117.835 516.003C80.1854 516.003 47.8666 502.65 21.545 475.943C-53.0882 400.829 -65.0828 236.58 -65.0828 141.102ZM-61.4178 134.759C-62.0842 228.568 -51.4222 397.491 23.8774 473.606C49.5326 499.645 81.185 512.665 117.835 512.665C222.122 512.665 333.405 499.979 439.691 475.943C525.32 456.58 616.945 428.538 617.612 337.399C618.944 224.562 581.294 118.067 517.656 53.3021C472.676 7.56612 417.368 -15.8026 353.397 -16.1365C329.407 -16.1365 300.753 -18.4733 270.1 -20.8102C170.145 -28.8224 45.8675 -38.5037 -18.4371 20.5858C-46.7577 46.2915 -61.4178 85.0168 -61.4178 134.759Z" fill="#12001A" fill-opacity="0.05"/>
<path d="M-48.7568 156.125C-48.7568 151.785 -48.7568 147.445 -48.7568 143.439C-48.0905 105.047 -35.4294 74.3339 -11.7733 51.2989C48.1998 -6.12144 166.813 -2.78303 253.441 -0.112314C266.769 0.221525 279.43 0.555355 290.758 0.555355C343.734 0.889194 392.379 22.2549 431.695 62.3156C485.004 117.065 517.99 203.864 517.99 289.994C517.99 291.33 517.99 292.999 517.99 294.334C516.99 360.434 461.681 406.838 353.397 432.877C289.758 447.9 207.129 455.578 115.17 455.245C80.1855 454.911 49.8658 442.225 25.5433 416.853C-29.4321 360.434 -48.7568 247.597 -48.7568 156.125ZM514.658 290.328C514.658 205.199 482.006 119.068 429.362 64.9864C390.713 25.5933 342.735 4.56145 290.758 4.22761C279.43 4.22761 266.769 3.89373 253.441 3.55989C167.48 1.22301 49.8658 -2.11534 -9.44098 54.3035C-32.7639 76.3369 -44.7586 106.716 -45.4249 144.106C-47.4241 236.914 -29.0989 356.762 27.5424 415.184C51.5316 439.888 80.8519 452.24 114.837 452.574C206.796 453.242 288.759 445.563 352.397 430.54C459.016 405.169 513.658 359.433 514.658 295.336C514.658 292.999 514.658 291.663 514.658 290.328Z" fill="#12001A" fill-opacity="0.05"/>
<path d="M-30.0984 164.471C-30.0984 160.131 -30.0984 155.791 -29.7652 151.451C-25.1006 24.5918 155.818 23.5903 233.117 23.2564C274.099 22.9226 313.081 40.2822 345.733 72.9985C390.38 117.733 419.034 188.507 419.034 253.939C419.034 254.273 419.034 254.607 419.034 254.941C419.034 280.647 408.705 303.348 389.047 322.71C328.074 382.468 186.804 396.489 112.838 395.487C81.1851 394.82 53.864 382.801 31.5406 359.099C-11.7733 313.697 -30.0984 230.905 -30.0984 164.471ZM-26.4334 151.785C-29.0989 219.554 -11.4401 309.023 33.873 356.762C55.5299 379.797 82.1846 391.815 112.838 392.149C128.83 392.483 186.471 392.149 250.109 379.797C313.414 367.445 359.061 347.414 386.715 320.707C405.706 302.012 415.369 279.979 415.702 255.275C416.035 190.51 387.715 120.07 343.401 75.6692C311.415 43.6206 273.432 26.9286 233.117 26.9286C156.818 27.2625 -21.7688 27.9302 -26.4334 151.785Z" fill="#12001A" fill-opacity="0.05"/>
<path d="M-6.77557 166.807C-6.77557 164.137 -6.77557 161.466 -6.44238 158.795C-2.77734 71.6632 118.835 49.6298 182.806 49.9637C217.124 50.2975 251.109 66.3218 278.097 95.032C310.416 129.417 328.074 176.155 326.075 220.556C321.411 310.025 194.801 339.069 110.838 336.732C83.8505 336.064 60.1944 325.047 40.8697 304.015C7.21811 268.295 -6.77557 210.874 -6.77557 166.807ZM322.744 213.211C322.744 171.815 305.418 129.084 275.431 97.3689C248.777 69.3264 215.791 53.6359 182.473 53.3021C119.834 52.9682 0.221283 74.3339 -3.44373 158.795C-5.44284 203.196 8.21768 264.622 42.8688 301.679C61.5272 322.043 84.5169 332.392 110.505 333.393C193.135 335.73 318.079 307.688 322.41 220.556C322.744 217.885 322.744 215.548 322.744 213.211Z" fill="#12001A" fill-opacity="0.05"/>
<path d="M22.2115 170.48C22.2115 168.143 22.2114 166.14 22.5446 164.137C24.5437 132.422 47.5335 112.726 66.8582 102.043C89.1815 89.3567 117.502 82.0123 142.824 81.6785C165.147 81.6785 187.471 91.6936 206.129 110.389C228.452 132.756 241.78 164.471 241.447 193.181C241.113 210.874 234.117 226.899 219.79 240.252C192.469 266.625 143.157 279.645 108.506 278.978C87.5156 278.644 68.524 269.296 52.8644 252.604C34.2061 231.906 22.2115 200.191 22.2115 170.48ZM238.115 192.513C238.115 164.804 224.787 134.425 203.464 113.059C185.805 95.032 164.148 85.0168 142.491 85.3507C117.835 85.3507 89.5147 93.029 68.1909 105.047C49.8658 115.396 27.5425 134.425 25.5434 164.471C23.5443 195.184 35.5389 228.902 55.5299 250.935C70.19 266.959 88.5151 275.639 108.506 276.307C142.491 276.975 190.47 264.289 217.124 238.583C230.452 225.563 237.448 210.54 237.448 193.848C238.115 193.181 238.115 192.847 238.115 192.513Z" fill="#12001A" fill-opacity="0.05"/>
<path d="M59.5281 169.478C59.5281 168.811 59.5281 168.477 59.5281 167.809C60.1945 139.767 90.5143 120.404 116.836 120.404C130.163 120.404 142.824 126.079 152.486 136.428C162.815 147.111 168.813 161.8 168.479 175.821C167.813 199.524 144.49 224.896 107.84 224.228C95.1788 223.894 83.8506 218.886 74.8546 209.539C64.8591 198.856 59.5281 184.501 59.5281 169.478ZM165.148 174.486C165.148 161.8 159.483 148.446 150.154 138.765C140.825 129.417 129.164 124.076 116.836 123.742C85.5165 123.408 63.1931 146.777 62.8599 167.809C62.5268 182.498 67.8577 196.853 77.52 206.868C85.8496 215.548 96.5116 220.222 108.173 220.556C135.161 221.223 164.814 203.196 165.481 175.487C165.148 175.153 165.148 174.82 165.148 174.486Z" fill="#12001A" fill-opacity="0.05"/>
</svg>
