<svg width="242" height="149" viewBox="0 0 242 149" fill="none" xmlns="http://www.w3.org/2000/svg">
<path fill-rule="evenodd" clip-rule="evenodd" d="M41.032 74.0742L73.9678 75.6865L75.5801 108.622L77.194 75.6558L177.9 74.0741L77.194 72.4925L75.5801 39.526L73.9678 72.4618L41.032 74.0742ZM72.0589 77.5954L20.5312 75.073V73.0753L72.0589 70.5529L74.5813 19.0253H76.5789L79.0999 70.5222L241.596 73.0743V75.074L79.0999 77.6261L76.5789 129.123H74.5813L72.0589 77.5954Z" fill="#CDB7D9"/>
<path fill-rule="evenodd" clip-rule="evenodd" d="M75.0365 27.0373L74.7675 34.2949C73.9722 55.7546 56.7532 72.9647 35.2932 73.7491L27.4148 74.037L35.2932 74.325C56.7532 75.1094 73.9722 92.3195 74.7675 113.779L75.0365 121.037L75.3055 113.779C76.1008 92.3195 93.3198 75.1094 114.78 74.325L122.658 74.037L114.78 73.7491C93.3198 72.9647 76.1008 55.7545 75.3055 34.2949L75.0365 27.0373ZM74.0372 7.45058e-09L76.0358 0L77.3041 34.2209C78.0607 54.6337 94.4397 71.0043 114.853 71.7504L150.073 73.0377V75.0364L114.853 76.3237C94.4397 77.0698 78.0607 93.4404 77.3041 113.853L76.0358 148.074H74.0372L72.7689 113.853C72.0124 93.4404 55.6334 77.0698 35.2202 76.3237L1.11759e-08 75.0364L0 73.0377L35.2202 71.7504C55.6333 71.0043 72.0124 54.6337 72.7689 34.2209L74.0372 7.45058e-09Z" fill="#CDB7D9"/>
<path fill-rule="evenodd" clip-rule="evenodd" d="M75.0365 91.3564C84.6018 91.3564 92.356 83.6023 92.356 74.037C92.356 64.4717 84.6018 56.7175 75.0365 56.7175C65.4712 56.7175 57.717 64.4717 57.717 74.037C57.717 83.6023 65.4712 91.3564 75.0365 91.3564ZM75.0365 93.3564C85.7063 93.3564 94.356 84.7068 94.356 74.037C94.356 63.3671 85.7063 54.7175 75.0365 54.7175C64.3667 54.7175 55.717 63.3671 55.717 74.037C55.717 84.7068 64.3667 93.3564 75.0365 93.3564Z" fill="#CDB7D9"/>
<path fill-rule="evenodd" clip-rule="evenodd" d="M111.744 91.3564C121.309 91.3564 129.064 83.6023 129.064 74.037C129.064 64.4717 121.309 56.7175 111.744 56.7175C102.179 56.7175 94.4247 64.4717 94.4247 74.037C94.4247 83.6023 102.179 91.3564 111.744 91.3564ZM111.744 93.3564C122.414 93.3564 131.064 84.7068 131.064 74.037C131.064 63.3671 122.414 54.7175 111.744 54.7175C101.074 54.7175 92.4247 63.3671 92.4247 74.037C92.4247 84.7068 101.074 93.3564 111.744 93.3564Z" fill="#CDB7D9"/>
<path fill-rule="evenodd" clip-rule="evenodd" d="M148.452 91.3564C158.017 91.3564 165.771 83.6023 165.771 74.037C165.771 64.4717 158.017 56.7175 148.452 56.7175C138.887 56.7175 131.132 64.4717 131.132 74.037C131.132 83.6023 138.887 91.3564 148.452 91.3564ZM148.452 93.3564C159.122 93.3564 167.771 84.7068 167.771 74.037C167.771 63.3671 159.122 54.7175 148.452 54.7175C137.782 54.7175 129.132 63.3671 129.132 74.037C129.132 84.7068 137.782 93.3564 148.452 93.3564Z" fill="#CDB7D9"/>
<path fill-rule="evenodd" clip-rule="evenodd" d="M185.159 91.3564C194.725 91.3564 202.479 83.6023 202.479 74.037C202.479 64.4717 194.725 56.7175 185.159 56.7175C175.594 56.7175 167.84 64.4717 167.84 74.037C167.84 83.6023 175.594 91.3564 185.159 91.3564ZM185.159 93.3564C195.829 93.3564 204.479 84.7068 204.479 74.037C204.479 63.3671 195.829 54.7175 185.159 54.7175C174.49 54.7175 165.84 63.3671 165.84 74.037C165.84 84.7068 174.49 93.3564 185.159 93.3564Z" fill="#CDB7D9"/>
<path fill-rule="evenodd" clip-rule="evenodd" d="M221.867 91.3564C231.432 91.3564 239.187 83.6023 239.187 74.037C239.187 64.4717 231.432 56.7175 221.867 56.7175C212.302 56.7175 204.548 64.4717 204.548 74.037C204.548 83.6023 212.302 91.3564 221.867 91.3564ZM221.867 93.3564C232.537 93.3564 241.187 84.7068 241.187 74.037C241.187 63.3671 232.537 54.7175 221.867 54.7175C211.197 54.7175 202.548 63.3671 202.548 74.037C202.548 84.7068 211.197 93.3564 221.867 93.3564Z" fill="#CDB7D9"/>
</svg>
